<?xml version="1.0" encoding="utf-8"?>
<!-- Generator: Adobe Illustrator 16.0.0, SVG Export Plug-In . SVG Version: 6.00 Build 0)  -->
<!DOCTYPE svg PUBLIC "-//W3C//DTD SVG 1.1//EN" "http://www.w3.org/Graphics/SVG/1.1/DTD/svg11.dtd">
<svg version="1.1" id="Layer_1" xmlns="http://www.w3.org/2000/svg" xmlns:xlink="http://www.w3.org/1999/xlink" x="0px" y="0px"
	 width="156.383px" height="149.604px" viewBox="0 0 156.383 149.604" enable-background="new 0 0 156.383 149.604"
	 xml:space="preserve">
<path fill="#FFFFFF" d="M155.93,58.195c-0.291-1.422-0.72-2.798-1.274-4.126c0.924-1.35,1.466-2.982,1.466-4.741
	c0-4.644-3.765-8.408-8.409-8.408c-1.288,0-2.503,0.298-3.595,0.815c-8.509-5.937-20.882-9.74-35.347-10.879
	C93.25,7.966,72.773-4.45,56.304,1.467c-14.268,5.127-22.097,22.781-22.25,45.307C12.794,58.427,0.197,74.568,3.25,89.476
	c0.029,0.141,0.069,0.278,0.101,0.418C1.319,91.429,0,93.859,0,96.601c0,4.645,3.765,8.41,8.409,8.41
	c1.473,0,2.856-0.381,4.06-1.047c9.353,7.79,24.753,12.48,42.955,13.124c15.644,23.951,36.716,37.106,53.583,31.048
	c15.409-5.537,23.313-25.684,22.14-50.804C148.713,86.079,158.683,71.636,155.93,58.195z M66.332,4.992
	c10.149,0,18.377,8.228,18.377,18.377c0,10.149-8.228,18.377-18.377,18.377s-18.377-8.228-18.377-18.377
	C47.955,13.219,56.183,4.992,66.332,4.992z M97.968,141.765c-10.15,0-18.378-8.229-18.378-18.378s8.228-18.376,18.378-18.376
	c10.148,0,18.377,8.227,18.377,18.376S108.117,141.765,97.968,141.765z M120.586,87.349c0,0-0.704,0.378-2.012,1.025
	c-8.958,4.901-19.631,9.275-31.397,12.581c-5.68,1.598-11.275,2.854-16.691,3.782c-2.312,0.396-4.586,0.725-6.826,1
	c-1.15,0.182-2.308,0.355-3.477,0.515c-16.395,2.237-36.091-1.495-43.368-9.627c0-0.009,0.001-0.017,0.001-0.024
	c0-2.541-1.132-4.812-2.913-6.355c-1.294-11.637,13.841-25.918,37.073-36.228c6.419-2.849,13.456-5.394,20.933-7.496
	c29.094-8.179,55.97-7.15,67.511,1.465c-0.07,0.438-0.117,0.884-0.117,1.341c0,3.798,2.518,7.005,5.975,8.048
	C146.362,66.799,136.653,77.962,120.586,87.349z"/>
</svg>
